<?xml version="1.0"?>
<svg xmlns="http://www.w3.org/2000/svg" id="Layer_1" viewBox="0 0 80 80">
  <defs>
    <style>.cls-1{fill:#95c03d;}.cls-2{fill:#f4aa1d;}.cls-3{fill:#f15d2a;}.cls-4{fill:#3b4245;}.cls-5{fill:#089eda;}</style>
  </defs>
  <title>coredial-news-iconperformance</title>
  <path class="cls-1" d="M56.23,21.85A39,39,0,0,0,32.62,19.2V29a30.24,30.24,0,0,1,14.29,4.27Z"/>
  <path class="cls-2" d="M11.29,31.36l2.61,3.08A30.38,30.38,0,0,1,29.21,29V20A38.75,38.75,0,0,0,11.29,31.36Z"/>
  <path class="cls-3" d="M9.09,34A38.63,38.63,0,0,0,1.5,53.66,30.15,30.15,0,0,1,7.83,40.08a30.54,30.54,0,0,1,3.4-3.53Z"/>
  <path class="cls-4" d="M35.58,49.55a8.28,8.28,0,0,1,2.65,5.54l15-10.53Z"/>
  <path class="cls-4" d="M28.37,50.31a5.92,5.92,0,1,0,2.54-.57A5.91,5.91,0,0,0,28.37,50.31Z"/>
  <path class="cls-5" d="M64.91,27.2a39.19,39.19,0,0,0-5.56-3.79l-9.6,11.75.78.61A30.16,30.16,0,0,1,61.09,53.26l17.41-3.4A38.7,38.7,0,0,0,64.91,27.2Z"/>
</svg>
